<svg width="16" height="16" viewBox="0 0 16 16" fill="none" xmlns="http://www.w3.org/2000/svg">
  <g clip-path="url(#clip0_7198_14724)">
    <path d="M12.315 13.529C11.5878 14.1017 10.7545 14.5248 9.86311 14.7739C8.97168 15.023 8.03977 15.0932 7.12108 14.9805C6.2024 14.8677 5.31511 14.5743 4.51036 14.117C3.70561 13.6598 2.99933 13.0478 2.43221 12.3163C1.86509 11.5848 1.44835 10.7483 1.20602 9.85503C0.963695 8.96174 0.900566 8.02932 1.02028 7.11152C1.13999 6.19372 1.44017 5.30869 1.90352 4.50744C2.36686 3.70619 2.98422 3.00457 3.71999 2.44302L3.79399 2.39302C5.27327 1.29972 7.12293 0.831473 8.94424 1.08923C10.7655 1.34699 12.4126 2.3101 13.5304 3.77095C14.6483 5.23181 15.1473 7.07341 14.9199 8.89876C14.6925 10.7241 13.757 12.387 12.315 13.529" fill="#0078D4" />
    <path d="M13.462 3.57301C10.7249 3.5832 8.09531 4.63969 6.11199 6.52601C5.84887 6.1114 5.45883 5.79291 4.99999 5.61801C5.95555 4.62676 7.09918 3.83601 8.36399 3.29201C9.59331 2.77375 10.9014 2.4671 12.233 2.38501C12.6895 2.72944 13.1023 3.1284 13.462 3.57301V3.57301ZM1.95499 11.508C2.10716 11.7728 2.27792 12.0264 2.46599 12.267C2.61499 12.457 2.75499 12.63 2.91999 12.803C3.11913 11.8213 3.41767 10.8623 3.81099 9.94101C3.37046 9.86242 2.96283 9.65582 2.63899 9.34701C2.35571 10.0487 2.12703 10.7711 1.95499 11.508V11.508Z" fill="white" />
    <path d="M2.87901 3.17703C2.96559 4.00548 3.15678 4.81963 3.44801 5.60003C3.04904 5.74334 2.69956 5.99808 2.44101 6.33403C2.22173 5.69629 2.06433 5.03893 1.97101 4.37103C2.22767 3.94005 2.53227 3.5395 2.87901 3.17703V3.17703ZM5.84801 9.25603C5.52153 9.60915 5.09105 9.84909 4.61901 9.94103C4.99126 10.3228 5.39099 10.6767 5.81501 11C6.34342 11.3984 6.90983 11.7438 7.50601 12.031C7.49671 11.9681 7.49137 11.9046 7.49001 11.841C7.49015 11.6454 7.52961 11.4519 7.60606 11.2718C7.68251 11.0918 7.79437 10.929 7.93501 10.793C7.1744 10.3753 6.47261 9.85844 5.84801 9.25603V9.25603ZM10.41 11.747C10.414 11.7772 10.414 11.8078 10.41 11.838C10.4106 12.2213 10.2592 12.5892 9.98901 12.861C10.9173 13.0455 11.865 13.1126 12.81 13.061C13.1769 12.7295 13.5062 12.3586 13.792 11.955C13.4248 11.9959 13.0555 12.0152 12.686 12.013C11.9196 12.0131 11.1558 11.9239 10.41 11.747V11.747ZM10.756 7.92803C10.8283 7.60589 11.0039 7.3162 11.256 7.10303C9.89887 6.11536 8.66477 4.96888 7.58001 3.68803C6.94786 2.94508 6.39518 2.13801 5.93101 1.28003C5.62257 1.37209 5.32168 1.48777 5.03101 1.62603C5.52758 2.56084 6.12227 3.44013 6.80501 4.24903C7.96481 5.63402 9.29194 6.86979 10.756 7.92803V7.92803ZM14.617 9.11603L14.369 8.98403H14.32L14.105 8.81103H14.047L13.792 8.64603C13.7032 8.94944 13.5178 9.21558 13.264 9.40403C13.364 9.47103 13.47 9.52803 13.577 9.58603L13.643 9.62703L13.932 9.78403L14.641 10.155C14.7407 9.85704 14.8202 9.55269 14.879 9.24403L14.617 9.11603ZM14.88 9.24003L14.906 9.25203L14.88 9.24003Z" fill="white" />
    <path d="M13.849 8.20797C13.849 8.51631 13.7576 8.81773 13.5862 9.0741C13.4149 9.33048 13.1715 9.5303 12.8866 9.6483C12.6017 9.7663 12.2883 9.79717 11.9858 9.73702C11.6834 9.67686 11.4056 9.52838 11.1876 9.31035C10.9696 9.09232 10.8211 8.81453 10.7609 8.51212C10.7008 8.2097 10.7317 7.89624 10.8497 7.61137C10.9677 7.3265 11.1675 7.08301 11.4239 6.91171C11.6802 6.7404 11.9816 6.64897 12.29 6.64897C12.4947 6.64897 12.6974 6.6893 12.8866 6.76764C13.0757 6.84599 13.2476 6.96082 13.3924 7.10559C13.5371 7.25036 13.652 7.42222 13.7303 7.61137C13.8087 7.80051 13.849 8.00324 13.849 8.20797V8.20797ZM4.20699 5.46997C3.76158 5.46997 3.32618 5.60205 2.95584 5.8495C2.5855 6.09695 2.29686 6.44867 2.12641 6.86017C1.95596 7.27167 1.91137 7.72447 1.99826 8.16131C2.08515 8.59816 2.29964 8.99943 2.61458 9.31438C2.92953 9.62932 3.3308 9.84381 3.76764 9.9307C4.20449 10.0176 4.65729 9.973 5.06879 9.80255C5.48029 9.6321 5.832 9.34345 6.07946 8.97312C6.32691 8.60278 6.45899 8.16737 6.45899 7.72197C6.45899 7.1247 6.22172 6.5519 5.79939 6.12957C5.37706 5.70723 4.80425 5.46997 4.20699 5.46997ZM8.94999 10.37C8.65964 10.37 8.37582 10.4561 8.13441 10.6174C7.893 10.7787 7.70484 11.0079 7.59373 11.2762C7.48262 11.5444 7.45355 11.8396 7.51019 12.1244C7.56684 12.4091 7.70665 12.6707 7.91195 12.876C8.11726 13.0813 8.37883 13.2211 8.6636 13.2778C8.94836 13.3344 9.24352 13.3053 9.51177 13.1942C9.78001 13.0831 10.0093 12.895 10.1706 12.6535C10.3319 12.4121 10.418 12.1283 10.418 11.838C10.4177 11.4487 10.263 11.0755 9.98773 10.8002C9.71248 10.525 9.33924 10.3702 8.94999 10.37V10.37Z" fill="white" />
  </g>
  <defs>
    <clipPath id="clip0_7198_14724">
      <rect width="16" height="16" fill="white" />
    </clipPath>
  </defs>
</svg>