<svg width="16" height="16" viewBox="0 0 16 16" fill="none" xmlns="http://www.w3.org/2000/svg">
  <g clip-path="url(#clip0_7198_14665)">
    <path d="M1 4H15V13.531C15 13.6554 14.9506 13.7747 14.8626 13.8626C14.7747 13.9506 14.6554 14 14.531 14H1.469C1.34461 14 1.22532 13.9506 1.13737 13.8626C1.04941 13.7747 1 13.6554 1 13.531V4Z" fill="#C1C1C1" />
    <path d="M1.469 1H14.531C14.6554 1 14.7747 1.04941 14.8626 1.13737C14.9506 1.22532 15 1.34461 15 1.469V3.981H1V1.461C1.0021 1.33801 1.05244 1.22076 1.14016 1.13453C1.22789 1.04829 1.34599 0.999982 1.469 1V1Z" fill="#37C2B1" />
    <path d="M3.214 5H12.786C12.905 5 13 5.068 13 5.148V6.848C13 6.928 12.9 6.993 12.786 6.996H3.214C3.1 7 3 6.932 3 6.852V5.152C3 5.068 3.1 5 3.214 5Z" fill="white" />
    <path d="M3.214 8H12.786C12.905 8 13 8.068 13 8.148V9.848C13 9.928 12.9 9.993 12.786 9.996H3.214C3.1 10 3 9.932 3 9.852V8.152C3 8.068 3.1 8 3.214 8Z" fill="#37C2B1" />
    <path d="M3.214 11H12.786C12.905 11 13 11.068 13 11.148V12.848C13 12.928 12.9 12.993 12.786 12.996H3.214C3.1 13 3 12.932 3 12.852V11.152C3 11.068 3.1 11 3.214 11Z" fill="#258277" />
  </g>
  <defs>
    <clipPath id="clip0_7198_14665">
      <rect width="16" height="16" fill="white" />
    </clipPath>
  </defs>
</svg>