<svg viewBox="0 0 16 16" fill="none" xmlns="http://www.w3.org/2000/svg">
  <path d="M8 2C11.314 2 14 4.686 14 8C14 11.314 11.314 14 8 14C4.686 14 2 11.314 2 8C2 4.686 4.686 2 8 2ZM8 1C4.134 1 1 4.134 1 8C1 11.866 4.134 15 8 15C11.866 15 15 11.866 15 8C15 4.134 11.866 1 8 1Z" fill="#0072C6" />
  <path d="M12 6.51C12.627 5.903 12.643 4.903 12.036 4.276L12 4.24L9.17 1.47C8.516 0.843 7.484 0.843 6.83 1.47L4 4.24C3.373 4.847 3.357 5.847 3.964 6.474L4 6.51L6.35 8.86C6.435 8.941 6.486 9.052 6.49 9.17V13.46C6.492 13.603 6.549 13.739 6.65 13.84L7.74 14.9C7.775 14.931 7.816 14.955 7.86 14.97C7.949 15.01 8.051 15.01 8.14 14.97C8.184 14.955 8.225 14.931 8.26 14.9L9.31 13.9L9.93 13.3C9.97 13.261 9.992 13.206 9.99 13.15C9.99 13.094 9.968 13.041 9.93 13L9.48 12.57C9.399 12.479 9.399 12.341 9.48 12.25L9.93 11.82C9.968 11.779 9.99 11.726 9.99 11.67C9.992 11.614 9.97 11.559 9.93 11.52L9.48 11.09C9.442 11.045 9.421 10.989 9.42 10.93C9.418 10.868 9.44 10.807 9.48 10.76L9.93 10.33C9.97 10.291 9.992 10.236 9.99 10.18C10.006 10.113 9.983 10.044 9.93 10L9.31 9.39V9.19L12 6.51V6.51ZM8 2.14C8.184 2.141 8.364 2.193 8.52 2.29C8.668 2.397 8.787 2.538 8.87 2.7C8.934 2.869 8.952 3.052 8.92 3.23C8.88 3.405 8.79 3.565 8.66 3.69C8.53 3.821 8.362 3.909 8.18 3.94C8.004 3.995 7.816 3.995 7.64 3.94C7.18 3.768 6.946 3.255 7.118 2.795C7.165 2.668 7.241 2.554 7.34 2.46C7.508 2.268 7.746 2.153 8 2.14V2.14Z" fill="#FCB714" />
  <path d="M8 9.25V13.25C8 13.388 7.888 13.5 7.75 13.5C7.612 13.5 7.5 13.388 7.5 13.25V9.25C7.5 9.112 7.612 9 7.75 9C7.888 9 8 9.112 8 9.25ZM5.75 5.5H10.25C10.388 5.5 10.5 5.388 10.5 5.25C10.5 5.112 10.388 5 10.25 5H5.75C5.612 5 5.5 5.112 5.5 5.25C5.5 5.388 5.612 5.5 5.75 5.5ZM10.25 6H5.75C5.612 6 5.5 6.112 5.5 6.25C5.5 6.388 5.612 6.5 5.75 6.5H10.25C10.388 6.5 10.5 6.388 10.5 6.25C10.5 6.112 10.388 6 10.25 6Z" fill="#F28300" />
</svg>